Coordinates
version=1
nRows=13
nColumns=36
inDegrees=yes

Units are S.I. units (second, meters, Newtons, ...)
If the header above contains a line with 'inDegrees', this indicates whether rotational values are in degrees (yes) or radians (no).

endheader
time	pelvis_tilt	pelvis_list	pelvis_rotation	pelvis_tx	pelvis_ty	pelvis_tz	hip_flexion_r	hip_adduction_r	hip_rotation_r	knee_angle_r	knee_angle_r_beta	ankle_angle_r	subtalar_angle_r	mtp_angle_r	hip_flexion_l	hip_adduction_l	hip_rotation_l	knee_angle_l	knee_angle_l_beta	ankle_angle_l	subtalar_angle_l	mtp_angle_l	lumbar_extension	lumbar_bending	lumbar_rotation	arm_flex_r	arm_add_r	arm_rot_r	elbow_flex_r	pro_sup_r	arm_flex_l	arm_add_l	arm_rot_l	elbow_flex_l	pro_sup_l
      0.00000000	      4.66864560	     -2.85962927	     -1.20311815	     -0.99502892	      1.24786189	     -0.07266553	     -5.91103213	      2.78117045	     -2.20439430	      7.50640902	      0.13101155	      0.19187228	    -16.84805343	     -5.57483353	     -6.98515246	     -3.30529035	     -0.39285157	      4.68113488	      0.08170122	      8.94319972	     -8.12774300	     -5.57483353	    -13.34172757	      4.76112847	     -0.07478127	      4.53752068	    -13.25454414	     -2.03089795	     28.89259356	     82.90925997	      0.37379208	     -9.84488910	      3.88427259	     32.91723604	     74.88266083
      0.00416670	      2.08246705	     -2.04136761	     -1.48567082	     -0.99290795	      1.24358790	     -0.07211060	     -2.65972267	      2.27023677	     -1.78995970	      8.28879296	      0.14466673	      4.57785684	    -13.67880873	     -6.13320410	     -3.06380746	     -2.02550618	     -0.39848709	      5.79919056	      0.10121497	      8.68344346	     -7.01668133	     -6.13320410	     -9.15785875	      3.98919010	     -0.11309349	      3.29850865	    -12.87236656	     -4.66928847	     28.65904740	     79.94687078	      0.51603821	     -9.14580829	     -0.43818856	     30.78484734	     72.68907976
      0.00833330	      1.49418594	     -1.37179021	     -1.97806339	     -0.99270225	      1.24335762	     -0.07138529	     -2.01668343	      1.43505495	     -2.54866015	      8.04580464	      0.14042578	      5.67980224	    -12.58591871	     -6.96070719	     -2.41047771	     -1.39004348	     -1.63160593	      5.88410187	      0.10269695	      8.57482315	     -5.89722569	     -6.96070719	     -8.19829478	      2.99248686	      0.39042225	      2.49047153	    -12.88256356	     -6.12543930	     29.74317857	     81.90378188	      0.67495372	    -10.14561996	      0.86540100	     30.48032208	     76.41618288
      0.01250000	      1.83089955	     -1.06767846	     -2.13067327	     -0.99284687	      1.24198863	     -0.07027039	     -2.39010446	      1.04889819	     -2.91110252	      7.93229691	      0.13844470	      6.74897137	    -11.65677982	     -7.03663900	     -3.21995579	     -0.99320039	     -1.75074105	      5.33483603	      0.09311045	      8.70361144	     -5.85408231	     -7.03663900	     -8.51206836	      2.48488401	      0.73624354	      2.23062458	    -12.90702094	     -6.11282226	     30.18715448	     80.19661036	      0.79388416	    -11.02109100	      2.96108419	     30.67990920	     75.71117057
      0.01666670	      2.18521876	     -0.92252286	     -2.18757992	     -0.99363329	      1.24715682	     -0.07011765	     -2.90724767	      0.98111100	     -3.00220411	      7.47351829	      0.13043750	      7.30778838	    -11.01164604	     -7.05028202	     -3.91085356	     -0.82785967	     -1.73639338	      4.78764793	      0.08356022	      8.49970110	     -6.21672781	     -7.05028202	     -9.05770757	      2.28184877	      0.94448986	      2.13612754	    -12.82172136	     -6.25204121	     30.77974281	     79.79075333	      1.21700593	    -11.32376860	      3.85375593	     30.57693619	     75.69269092
      0.02083330	      2.44233194	     -0.89197962	     -2.14753682	     -0.99353749	      1.24762547	     -0.06949864	     -3.28735544	      1.05082460	     -3.02377748	      7.15158841	      0.12481876	      7.62337774	    -10.53956953	     -7.15750469	     -4.25404209	     -0.81105003	     -1.65526043	      4.62270752	      0.08068147	      8.43466735	     -6.42740338	     -7.15750469	     -9.47300407	      2.20881001	      1.61993876	      1.55349676	    -12.73049031	     -7.14118559	     31.81070325	     76.53260255	      2.22669157	    -11.67106519	      6.78158580	     29.94858527	     73.65052692
      0.02500000	      2.70166434	     -0.87686504	     -2.07610311	     -0.99397390	      1.24635619	     -0.06956324	     -3.65816945	      1.05480443	     -3.14184566	      6.95552017	      0.12139673	      7.68718601	    -10.38536456	     -7.18628952	     -4.58405033	     -0.78070747	     -1.52412326	      4.44579621	      0.07759378	      8.36897108	     -6.53586510	     -7.18628952	     -9.91457311	      2.14778526	      1.60232190	      1.61413267	    -12.63549426	     -7.21887703	     32.23733572	     75.52909942	      2.48584557	    -11.66159150	      6.64198948	     30.20141650	     72.71623598
      0.02916670	      2.64321429	     -0.88110387	     -2.04547950	     -0.99518884	      1.25136644	     -0.06874358	     -3.61398333	      1.12045594	     -3.09252244	      6.88075545	      0.12009184	      7.73829709	    -10.35611053	     -7.18712261	     -4.43357129	     -0.85408565	     -1.52720263	      4.39608902	      0.07672623	      8.30898946	     -6.53405778	     -7.18712261	     -9.98431366	      2.10241261	      1.57777153	      1.73887732	    -12.49753789	     -7.19613071	     32.27904675	     75.51067473	      2.72398215	    -11.61244810	      6.63643847	     30.23793826	     72.69355366
      0.03333330	      2.98050406	     -0.87955888	     -1.96769280	     -0.99415027	      1.24731843	     -0.07028207	     -4.17839170	      1.10828499	     -3.14944190	      6.54242768	      0.11418690	      7.61914924	    -10.42102149	     -7.16870361	     -4.88424559	     -0.82071707	     -1.20503833	      4.20045593	      0.07331179	      7.74721923	     -7.12316383	     -7.16870361	    -10.40959466	      2.10392793	      1.60823631	      1.86878781	    -12.40810359	     -7.39140099	     32.24983419	     74.47546957	      3.21829349	    -11.43404902	      6.46919941	     29.61755808	     71.71771108
      0.03750000	      3.06926684	     -0.82406858	     -1.91452721	     -0.99461936	      1.24805954	     -0.06962873	     -4.38498335	      1.11128591	     -3.16921981	      6.29906232	      0.10993938	      7.74612053	    -10.26696860	     -7.19130985	     -4.99012335	     -0.79675359	     -1.18243883	      4.10700480	      0.07168076	      7.61153199	     -7.22156373	     -7.19130985	    -10.60071128	      2.01686834	      1.61974934	      1.79073075	    -12.32436625	     -7.38955026	     32.55296003	     73.75904827	      3.40229855	    -11.41294675	      6.56906664	     29.73165865	     71.07764504
      0.04166670	      3.12279626	     -0.80036246	     -1.85716718	     -0.99580538	      1.25111537	     -0.06786921	     -4.57325153	      1.16691386	     -3.08423178	      6.01318443	      0.10494987	      7.84428186	    -10.15579082	     -7.21397790	     -5.01606947	     -0.84452639	     -1.12582538	      4.03472000	      0.07041915	      7.27901184	     -7.21785954	     -7.21397790	    -10.78585316	      1.96639966	      1.62148429	      1.76223360	    -12.22977716	     -7.36230219	     32.79895808	     72.97594866	      3.59677664	    -11.42799820	      6.65507575	     29.75483277	     70.38575027
      0.04583330	      3.07007957	     -0.79270669	     -1.81249258	     -0.99618672	      1.24944645	     -0.06812795	     -4.56462069	      1.21487663	     -3.01982622	      5.91116920	      0.10316937	      7.82261500	    -10.36118609	     -7.22871054	     -4.89100419	     -0.89843414	     -1.14040335	      4.10035962	      0.07156478	      7.03807368	     -7.22197280	     -7.22871054	    -10.74871218	      1.94743116	      1.71582341	      1.77650210	    -12.18515602	     -7.17307936	     32.69709519	     72.53744275	      3.93975429	    -11.40822663	      7.13317585	     29.28234872	     69.95089426
      0.05000000	      3.17522211	     -0.81587315	     -1.80567846	     -0.99425353	      1.24400209	     -0.06821712	     -4.73227927	      1.29001130	     -2.88884171	      5.85577361	      0.10220253	      7.90435994	    -10.40765105	     -7.26430131	     -5.01751483	     -0.96221811	     -1.19292209	      4.08661015	      0.07132480	      7.00616718	     -7.20017542	     -7.26430131	    -10.91257367	      1.95605753	      1.76492399	      1.71887693	    -12.24690985	     -6.86182033	     33.06105104	     71.28372628	      3.99586404	    -11.48513264	      7.54184859	     29.55327831	     68.84703536
